<svg id="Layer_1" data-name="Layer 1" xmlns="http://www.w3.org/2000/svg" width="50" height="50" viewBox="0 0 50 50"><title>Artboard 1</title><rect x="23.2" y="6.2" width="4.2" height="37.09" rx="1.5" ry="1.5" fill="#fff"/><polyline points="41.5 26.2 25.7 26.2 25.7 22 41.5 22" fill="#fff"/><rect x="11.6" y="18.8" width="4.2" height="10.56" transform="translate(37.8 10.3) rotate(90)" fill="#fff"/><path d="M31.7,4.2h4.2V41.4A6.7,6.7,0,0,1,29.7,48H27.4c4.9-1.7,4.3-5.8,4.3-10.4Z" fill="#fff"/><rect x="23.2" y="6.2" width="4.2" height="37.09" rx="1.5" ry="1.5" fill="#fff"/><polyline points="41.5 26.2 25.7 26.2 25.7 22 41.5 22" fill="#fff"/><rect x="11.6" y="18.8" width="4.2" height="10.56" transform="translate(37.8 10.3) rotate(90)" fill="#fff"/><path d="M31.7,4.2h4.2V41.4A6.7,6.7,0,0,1,29.7,48H27.4c4.9-1.7,4.3-5.8,4.3-10.4Z" fill="#fff"/><path d="M19.2,45.3H15V8.2a6.7,6.7,0,0,1,6.2-6.7h2.2c-4.9,1.7-4.3,5.8-4.3,10.4Z" fill="#fff"/></svg>