<svg id="Layer_1" data-name="Layer 1" xmlns="http://www.w3.org/2000/svg" width="1.4in" height="0.7in" viewBox="0 0 100 50"><title>Artboard 2</title><path d="M30.4,5.5c.1.3.1.5.2.5A38.7,38.7,0,0,1,29,11.2h0l.5-.2v.3h.1l.6-.4h.3v.7l-.4.6v.3h.2a19.1,19.1,0,0,1-2.4,1.9,174.1,174.1,0,0,0-5.6,18.3c-.2,0-.4.2-.7.7s-.6.3-.6.7h-.2v-.7h-.2c0,.3-.2.5-.6.5h-.1v-.5A133.3,133.3,0,0,1,25,16h0c-3.2,1.3-4.7,2.1-4.7,2.4-1.6,3.5-2.8,6-3.7,7.6A36.7,36.7,0,0,1,15,29.8q-2.5,6.5-2.7,8.7c-.4.1-.7.5-.9,1.1l-.4-.2a1.4,1.4,0,0,1-.3.7.4.4,0,0,1-.1-.3H9.8c-.1,0-.2,0-.2-.1.1-1.7,1.2-5.3,3.4-10.8s4.6-9.4,4.6-9.6h0a33.3,33.3,0,0,1-4.8,1.6.6.6,0,0,0-.5-.2v-.2c0-.1.1-.1.2-.1v-.2h-.4c1-1.1,3.3-2.3,6.8-3.7.7-1.7,1.3-3.6,2-5.6l1.1-1h.2l.7-.4.2.3a3.1,3.1,0,0,1-.1.9V11l-1.3,4.1h.1c2.9-1.2,4.3-2,4.3-2.5,1.1-3.8,2.2-6.1,3.2-6.9h.5C29.9,5.6,30.1,5.5,30.4,5.5Z" fill="#050606"/><path d="M31.1,15.2h.2c.2,0,.3,0,.3-.1s.2.2.3.6a1.8,1.8,0,0,0-.1.6v2.4h.4c.1,0,.2.1.2.3s-.4.6-.4.7a18.6,18.6,0,0,0,.5,3h-.3l-.5.5h0c-.3,0-.5-.3-.6-.8a5.6,5.6,0,0,0-.4-2.3l-1.4.3h-.6a.9.9,0,0,0-.3.5h-.1v-.3L28,21h-.1a.3.3,0,0,0-.1-.2A31.5,31.5,0,0,1,30,16.5,4.9,4.9,0,0,1,31.1,15.2Zm-1.4,4.2h.1c.5-.1.8-.2.8-.4s-.1-.2-.2-.4v-.2h-.1C29.9,18.8,29.7,19.1,29.7,19.4Z" fill="#050606"/><path d="M39.5,13.2a.8.8,0,0,1,.1.4,4,4,0,0,1-.9,2.3c-.3.3-.4.5-.4.6h.1c0,.1-.1.2-.3.4H38c-.1,0-.1.2-.1.4s-.5.4-.8,1.2a12.7,12.7,0,0,0-1.9,2.8l-2.2,4c-.1,0-.3.2-.5.6h-.4c0-.1.6-1.4,1.9-4a17.4,17.4,0,0,1,1-1.9,3.7,3.7,0,0,1-.2-1.4.7.7,0,0,0-.7-.6c-.1,0-.3-.1-.4-.4s.3-.5.8-.8h.2l.8.5a2,2,0,0,0,.5.9,14.8,14.8,0,0,0,1.5-2.2l.9-1.9c.1,0,.3-.1.5-.5h.3Zm-1.1,3.1h.1a.1.1,0,0,1-.1.1Z" fill="#050606"/><path d="M41.5,11.5v.6a45.5,45.5,0,0,1-1.8,6.7c-.6,1.9-.9,2.9-1,3.1s-.2.2-.3.4h-.2c-.1,0-.1.2-.2.5H38v-.4h0l-.4.2v-.3c.1-.5,1-3.7,2.7-9.5q0-.3.9-1.2h.4Z" fill="#050606"/><path d="M42.5,16.1h.2v.3a1,1,0,0,0-.1.4.3.3,0,0,1,.1.2l2.1-.2h.2c-.3.3-.4.5-.4.7l-1,.5h1l.3.3h0c0,.1-.2.2-.5.3h.2c0,.2-.3.2-.7.3l-.4.2h-.2c-.9,0-1.4.1-1.4.2V20l.4.4h.2l1.7-.7.5-.2h0v.3h0c0,.5-.7,1.1-2.1,1.7a1.9,1.9,0,0,1-1,.3c-.5-.3-.7-.5-.7-.6h-.3a2.5,2.5,0,0,1-.1-.8,1.5,1.5,0,0,1,.1-.6l-.3-.3a.4.4,0,0,0-.1-.3h0c.3,0,.5-.2.7-.7h0l-.5-.2c-.1,0-.2-.1-.2-.4l1-.6.4-.4.4-.4h.4Z" fill="#050606"/><path d="M51.6,13.2a.8.8,0,0,1,.1.4,3.6,3.6,0,0,1-1,2.3,1.5,1.5,0,0,0-.3.6h.1c0,.1-.1.2-.3.4h-.1c-.1,0-.1.2-.2.4s-.4.4-.8,1.2a14.4,14.4,0,0,0-1.8,2.8l-2.2,4q-.1,0-.6.6h-.3c0-.1.6-1.4,1.8-4l1.1-1.9a6.1,6.1,0,0,1-.3-1.4q-.1-.6-.6-.6c-.1,0-.3-.1-.4-.4s.2-.5.8-.8h.2a1.3,1.3,0,0,1,.7.5,4.7,4.7,0,0,0,.6.9l1.5-2.2.9-1.9c.1,0,.3-.1.5-.5h.3Zm-1.1,3.1h.1a.1.1,0,0,1-.1.1Z" fill="#050606"/><path d="M58.1,16.7h.8c1.4,0,2.4,1,3.1,2.9h0a20.8,20.8,0,0,0,1.3,4c0,.5-.3.8-.8,1.1v.2h-.1c0-.1-.1-.1-.3-.1l-.3.2v.4h-.2l-.8-.5c-1.2-3.9-2-5.8-2.5-5.8H57.3c-1.6,0-3.4,1.3-5.2,4.1A11.8,11.8,0,0,0,49.4,28a69.9,69.9,0,0,0-4.1,10.4v1.9a2.2,2.2,0,0,0,1,2.1h.4c.9,0,5.3-3.5,13.1-10.6a14,14,0,0,1,2-2.1H62l.5-.3h.2v.4a1.9,1.9,0,0,1-.4,1v.4c-.6.9-2.7,3-6.4,6.2-5.6,4.8-9,7.3-10.3,7.3h-.7c-.3,0-.7-.3-1.4-.9s-.7-.7-.9-2.2V40.6c0-2.3,1.8-7,5.3-14.3.5-1.6,2.3-4.1,5.6-7.5A6.7,6.7,0,0,1,58.1,16.7Z" fill="#050606"/><path d="M66.7,24h.5c.1,0,.2.2.4.6s-.2.4-.2.5v2.5h.3c.1,0,.2.1.2.3a1.3,1.3,0,0,0-.4.7c.2,1.2.3,2.2.5,2.9v.2h-.2a1.7,1.7,0,0,1-.5.5h0c-.3,0-.5-.3-.5-.9s-.4-2.2-.5-2.2l-1.4.3h-.1l-.4.2a.1.1,0,0,0-.1-.1c-.2.2-.3.3-.3.5h-.1v-.3h-.5a29.1,29.1,0,0,1,2.2-4.4A5,5,0,0,1,66.7,24Zm-1.4,4.1h.1c.5,0,.8-.2.8-.3a.8.8,0,0,0-.2-.4v-.2h-.1A2.7,2.7,0,0,0,65.3,28.1Z" fill="#050606"/><path d="M72.7,22.6h.1v.2a3,3,0,0,1-.2,1h0l1.6-.3h.2a.7.7,0,0,1,.6.4,2.1,2.1,0,0,1-.4,1c0,.3-.5.7-1.3,1.3L71,27.5a22.6,22.6,0,0,0-2,4.9.9.9,0,0,1-.4.8c0,.1-.1.2-.4.4h0c-.1,0-.1,0-.1-.1H68c0,.1-.1.2-.3.2v-.3c0-.6.7-2.4,1.9-5.4l-.6-.3a.6.6,0,0,1,.5-.6c.2-.2.3-.3.3-.4s.7-.3.8-1h0c-.1,0-.2-.1-.2-.4a2.1,2.1,0,0,0,1.1-1.4,2.2,2.2,0,0,1,1-1.1Zm-1.1,3.5h0A7.7,7.7,0,0,0,73.5,25h0c-1.1.1-1.6.3-1.6.6A1.7,1.7,0,0,0,71.6,26.1Z" fill="#050606"/><path d="M80.2,22h.4c.2,0,.3.1.3.4s-.3.7-.8.7a12,12,0,0,0-4.3,2.6h0V26h.6l2.9-.3h.4a.6.6,0,0,1,.6.5,1.9,1.9,0,0,1-.4,1H80a7.2,7.2,0,0,1-2.4,1.9q-4.3,2.1-5.1,2.1c0-.1-.2-.2-.7-.3h0c0-.4.4-.9,1.1-1.4l1-.3v.5q4.3-1.6,5.1-2.7h-.2l-2.7.3h-.5a1.8,1.8,0,0,1-1-.6c-.1,0-.1-.2-.1-.4s.7-1.6,2.1-2.6A13.2,13.2,0,0,1,80.2,22Z" fill="#050606"/><path d="M82.9,25.8c.8.2,1.1.6,1.1,1.2s.1.4.1.7a2.5,2.5,0,0,1-.4,1.3q0,.8-2.1,1.2h-.8c-.2,0-.4-.1-.6-.5H80a.4.4,0,0,1-.1-.3v-.2c.7-2,1.5-3.2,2.4-3.5Zm-1.6,3h.5q1.2,0,1.2-.6h0c0-.7-.1-1.1-.2-1.1a.9.9,0,0,0-.9.6,1.9,1.9,0,0,1-.5,1C81.3,28.7,81.3,28.7,81.3,28.8Zm2.4-2.2h.1v-.2Z" fill="#050606"/><path d="M89.7,21.1h.2v.2c-.4,1.6-.9,4.4-1.6,8.4-.2.6-.3.9-.2,1.1h0a.5.5,0,0,0-.4.5c-.2.1-.4.2-.4.3h-.6v-.6c-.4-2.4-.7-3.8-.7-4.2v-.2a.1.1,0,0,0-.1-.1c-.5,1.4-.7,2.5-.9,3.2l-.3.4q0,.1-.3.3v-.2h-.1l-.2.3h0c-.1,0-.2,0-.2-.2a21.6,21.6,0,0,1,1.5-5.1c.3-.6.6-.9.8-.9h.2c.2,0,.5.7.8,2.3l.2,1c.1.1.1.4.2.7h.1a47.2,47.2,0,0,1,1.2-5.9q.3-1,.9-1.2Z" fill="#050606"/></svg>