<svg id="Layer_1" data-name="Layer 1" xmlns="http://www.w3.org/2000/svg" width="171.2" height="51" viewBox="0 0 171.2 51"><title>Artboard 1</title><path d="M12.1,33.9H10.2V25.6H5.8v8.3H4V16.5H5.8v7.3h4.4V16.5h1.9Z" fill="#fff"/><path d="M21.2,31.1H16.3l-.6,2.8H13.9l3.7-17.4h2.3l3.7,17.4H21.7Zm-4.4-1.9h4l-2-9.8Z" fill="#fff"/><path d="M32.2,16.5,28.5,27.2v6.7H26.6V27.2L22.9,16.5h2l2.7,8.6,2.7-8.6Z" fill="#fff"/><path d="M40.6,33.9H33.7V16.5h1.9V32.1h5Z" fill="#fff"/><path d="M49.6,33.9H42.7V16.5h6.9v1.9h-5v5.4h3.7v1.9H44.6v6.4h5Z" fill="#fff"/><path d="M59.8,16.5,56,27.2v6.7H54.1V27.2L50.4,16.5h2l2.7,8.6,2.7-8.6Z" fill="#fff"/><path d="M113,31.5a2.5,2.5,0,0,1-2.5,2.5h-3.1a2.5,2.5,0,0,1-2.5-2.5V19a2.5,2.5,0,0,1,2.5-2.5h3.1A2.5,2.5,0,0,1,113,19v2.2h-1.9V19a.6.6,0,0,0-.6-.6h-3.1a.6.6,0,0,0-.6.6V31.5a.6.6,0,0,0,.6.6h3.1a.6.6,0,0,0,.6-.6V29.3H113Z" fill="#fff"/><path d="M122.1,31.1h-4.8l-.6,2.8h-1.9l3.7-17.5h2.3L124.5,34h-1.9Zm-4.4-1.9h4l-2-9.9Z" fill="#fff"/><path d="M134.4,24.8a2.5,2.5,0,0,1-2.5,2.5h-3.7V34h-1.9V16.5h5.6a2.5,2.5,0,0,1,2.5,2.5ZM132.6,19a.6.6,0,0,0-.6-.6h-3.7v7h3.7a.6.6,0,0,0,.6-.6Z" fill="#fff"/><path d="M142.8,29a1.1,1.1,0,0,0-.3-.8l-5.1-5.1a3.1,3.1,0,0,1-.8-2.2V19a2.5,2.5,0,0,1,2.5-2.5h3.1a2.5,2.5,0,0,1,2.5,2.5v2.5h-1.9V19a.6.6,0,0,0-.6-.6H139a.6.6,0,0,0-.6.6v1.9a1.1,1.1,0,0,0,.3.8l5.1,5.1a3.1,3.1,0,0,1,.8,2.2v2.5a2.5,2.5,0,0,1-2.5,2.5H139a2.5,2.5,0,0,1-2.5-2.5V29h1.9v2.5a.6.6,0,0,0,.6.6h3.1a.6.6,0,0,0,.6-.6Z" fill="#fff"/><path d="M155.5,31.5A2.5,2.5,0,0,1,153,34h-3.1a2.5,2.5,0,0,1-2.5-2.5V19a2.5,2.5,0,0,1,2.5-2.5H153a2.5,2.5,0,0,1,2.5,2.5ZM153.6,19a.6.6,0,0,0-.6-.6h-3.1a.6.6,0,0,0-.6.6V31.5a.6.6,0,0,0,.6.6H153a.6.6,0,0,0,.6-.6Z" fill="#fff"/><path d="M166.3,34h-1.6L160.1,21V34h-1.9V16.5h2.1l4.2,11.8V16.5h1.9Z" fill="#fff"/><rect x="80.2" y="6.8" width="4.2" height="37.37" rx="1.9" ry="1.9" fill="#fff"/><polyline points="98.6 26.8 82.7 26.8 82.7 22.6 98.6 22.6" fill="#fff"/><rect x="68.5" y="19.4" width="4.2" height="10.64" transform="translate(95.4 -45.9) rotate(90)" fill="#fff"/><path d="M88.7,4.7h4.2V42.2a6.7,6.7,0,0,1-6.3,6.7H84.4c4.9-1.7,4.4-5.8,4.3-10.4Z" fill="#fff"/><path d="M75.9,46.2H71.7V8.7A6.7,6.7,0,0,1,78,2h2.2c-4.9,1.7-4.4,5.8-4.3,10.4Z" fill="#fff"/><path d="M12.1,33.9H10.2V25.6H5.8v8.3H4V16.5H5.8v7.3h4.4V16.5h1.9Z" fill="#fff"/><path d="M21.2,31.1H16.3l-.6,2.8H13.9l3.7-17.4h2.3l3.7,17.4H21.7Zm-4.4-1.9h4l-2-9.8Z" fill="#fff"/><path d="M32.2,16.5,28.5,27.2v6.7H26.6V27.2L22.9,16.5h2l2.7,8.6,2.7-8.6Z" fill="#fff"/><path d="M40.6,33.9H33.7V16.5h1.9V32.1h5Z" fill="#fff"/><path d="M49.6,33.9H42.7V16.5h6.9v1.9h-5v5.4h3.7v1.9H44.6v6.4h5Z" fill="#fff"/><path d="M59.8,16.5,56,27.2v6.7H54.1V27.2L50.4,16.5h2l2.7,8.6,2.7-8.6Z" fill="#fff"/><path d="M113,31.5a2.5,2.5,0,0,1-2.5,2.5h-3.1a2.5,2.5,0,0,1-2.5-2.5V19a2.5,2.5,0,0,1,2.5-2.5h3.1A2.5,2.5,0,0,1,113,19v2.2h-1.9V19a.6.6,0,0,0-.6-.6h-3.1a.6.6,0,0,0-.6.6V31.5a.6.6,0,0,0,.6.6h3.1a.6.6,0,0,0,.6-.6V29.3H113Z" fill="#fff"/><path d="M122.1,31.1h-4.8l-.6,2.8h-1.9l3.7-17.5h2.3L124.5,34h-1.9Zm-4.4-1.9h4l-2-9.9Z" fill="#fff"/><path d="M134.4,24.8a2.5,2.5,0,0,1-2.5,2.5h-3.7V34h-1.9V16.5h5.6a2.5,2.5,0,0,1,2.5,2.5ZM132.6,19a.6.6,0,0,0-.6-.6h-3.7v7h3.7a.6.6,0,0,0,.6-.6Z" fill="#fff"/><path d="M142.8,29a1.1,1.1,0,0,0-.3-.8l-5.1-5.1a3.1,3.1,0,0,1-.8-2.2V19a2.5,2.5,0,0,1,2.5-2.5h3.1a2.5,2.5,0,0,1,2.5,2.5v2.5h-1.9V19a.6.6,0,0,0-.6-.6H139a.6.6,0,0,0-.6.6v1.9a1.1,1.1,0,0,0,.3.8l5.1,5.1a3.1,3.1,0,0,1,.8,2.2v2.5a2.5,2.5,0,0,1-2.5,2.5H139a2.5,2.5,0,0,1-2.5-2.5V29h1.9v2.5a.6.6,0,0,0,.6.6h3.1a.6.6,0,0,0,.6-.6Z" fill="#fff"/><path d="M155.5,31.5A2.5,2.5,0,0,1,153,34h-3.1a2.5,2.5,0,0,1-2.5-2.5V19a2.5,2.5,0,0,1,2.5-2.5H153a2.5,2.5,0,0,1,2.5,2.5ZM153.6,19a.6.6,0,0,0-.6-.6h-3.1a.6.6,0,0,0-.6.6V31.5a.6.6,0,0,0,.6.6H153a.6.6,0,0,0,.6-.6Z" fill="#fff"/><path d="M166.3,34h-1.6L160.1,21V34h-1.9V16.5h2.1l4.2,11.8V16.5h1.9Z" fill="#fff"/><rect x="80.2" y="6.8" width="4.2" height="37.37" rx="1.9" ry="1.9" fill="#fff"/><polyline points="98.6 26.8 82.7 26.8 82.7 22.6 98.6 22.6" fill="#fff"/><rect x="68.5" y="19.4" width="4.2" height="10.64" transform="translate(95.4 -45.9) rotate(90)" fill="#fff"/><path d="M88.7,4.7h4.2V42.2a6.7,6.7,0,0,1-6.3,6.7H84.4c4.9-1.7,4.4-5.8,4.3-10.4Z" fill="#fff"/><path d="M75.9,46.2H71.7V8.7A6.7,6.7,0,0,1,78,2h2.2c-4.9,1.7-4.4,5.8-4.3,10.4Z" fill="#fff"/></svg>